<svg id="visual" viewBox="0 0 960 540" width="960" height="540" xmlns="http://www.w3.org/2000/svg" xmlns:xlink="http://www.w3.org/1999/xlink" version="1.1"><rect x="0" y="0" width="960" height="540" fill="#715DF2"></rect><defs><linearGradient id="grad1_0" x1="43.8%" y1="0%" x2="100%" y2="100%"><stop offset="14.444444444444446%" stop-color="#715df2" stop-opacity="1"></stop><stop offset="85.55555555555554%" stop-color="#715df2" stop-opacity="1"></stop></linearGradient></defs><defs><linearGradient id="grad2_0" x1="0%" y1="0%" x2="56.3%" y2="100%"><stop offset="14.444444444444446%" stop-color="#715df2" stop-opacity="1"></stop><stop offset="85.55555555555554%" stop-color="#715df2" stop-opacity="1"></stop></linearGradient></defs><g transform="translate(960, 0)"><path d="M0 486C-66.8 483.1 -133.7 480.3 -186 449C-238.3 417.7 -276.1 358.1 -306.2 306.2C-336.2 254.3 -358.4 210.1 -387.1 160.3C-415.8 110.6 -450.9 55.3 -486 0L0 0Z" fill="#FBAE3C"></path></g><g transform="translate(0, 540)"><path d="M0 -486C69.6 -485.4 139.2 -484.8 186 -449C232.8 -413.2 256.7 -342.2 292.7 -292.7C328.8 -243.3 376.9 -215.5 411.1 -170.3C445.4 -125.1 465.7 -62.6 486 0L0 0Z" fill="#FBAE3C"></path></g></svg>